<svg width="50" height="50" viewBox="0 0 50 50" fill="none" xmlns="http://www.w3.org/2000/svg">
<path d="M36.3158 27.4476V30.2448H39.1228V47.2028H41.9298V41.2588V38.986V35.6644V33.3916V30.0699V27.7972V27.4476H41.4035H36.3158Z" fill="#2E9B6A"/>
<path d="M47.0175 49.6504V47.2028H41.9298H39.1228H7.89474H7.7193H2.80702V49.6504H7.7193H7.89474H8.07018H41.7544H41.9298H42.1053H47.0175Z" fill="#2E9B6A"/>
<path d="M35.7895 44.056V41.7832H14.0351V44.056H35.7895Z" fill="#2E9B6A"/>
<path d="M35.7895 38.4616V36.1888H14.0351V38.4616H35.7895Z" fill="#2E9B6A"/>
<path d="M14.0351 33.042H35.7895V30.5944H14.0351V33.042Z" fill="#2E9B6A"/>
<path d="M44.2105 2.04859e-05H35.614V2.27275H39.29V3.62636V5.06995H41.9298H44.7368V6.46855V7.86715H47.0175V47.2028H49.8246V5.59443H47.0175V2.79722H44.2105V2.04859e-05Z" fill="#2E9B6A"/>
<path fill-rule="evenodd" clip-rule="evenodd" d="M35.614 2.04859e-05H10.3509V16.2588H19.1228H35.614V2.27275V2.04859e-05ZM27.193 2.44757V11.014H33.1579V2.44757H27.193Z" fill="#2E9B6A"/>
<path d="M0 47.028V47.2028H2.80702V46.6783V5.06995H5.26316H5.61404V2.27275H10.3509V2.04859e-05H5.61404H2.80702V2.79722L0 2.79722V47.028Z" fill="#2E9B6A"/>
</svg>
