<svg width="526" height="527" viewBox="0 0 526 527" fill="none" xmlns="http://www.w3.org/2000/svg">
<path d="M382.316 291.14V320.622H411.789V499.36H441.263V436.71V412.755V377.745V353.79V318.78V294.825V291.14H435.737H382.316Z" fill="white"/>
<path d="M494.684 525.157V499.36H441.263H411.789H83.8947H82.0527H30.4737V525.157H82.0526H83.8947H85.7368H439.421H441.263H443.105H494.684Z" fill="white"/>
<path d="M376.789 466.192V442.238H148.368V466.192H376.789Z" fill="white"/>
<path d="M376.789 407.227V383.273H148.368V407.227H376.789Z" fill="white"/>
<path d="M148.368 350.105H376.789V324.308H148.368V350.105Z" fill="white"/>
<path d="M465.211 1.84266H374.947V25.7972H413.545V40.0643V55.2797H441.263H470.737V70.021V84.7622H494.684V499.36H524.158V60.8077H494.684V31.3252H465.211V1.84266Z" fill="white"/>
<path fill-rule="evenodd" clip-rule="evenodd" d="M374.947 1.84266H109.684V173.21H201.789H374.947V25.7972V1.84266ZM286.526 27.6399V117.93H349.158V27.6399H286.526Z" fill="white"/>
<path d="M1 497.518V499.36H30.4737V493.832V55.2797H56.2632H59.9474V25.7972H109.684V1.84266H59.9474H30.4737V31.3252L1 31.3252V497.518Z" fill="white"/>
<path d="M467.053 1.84266H465.211M107.842 173.21H109.684M376.789 173.21H374.947M374.947 175.052V173.21M526 60.8077H524.158M492.842 60.8077H494.684M496.526 31.3252H494.684M463.368 31.3252H465.211M472.579 55.2797H470.737M494.684 62.6504V60.8077M494.684 29.4825V31.3252M85.7368 294.825H83.8947M85.7368 353.79H83.8947M85.7368 412.755H83.8947M439.421 436.71H441.263M439.421 377.745H441.263M439.421 318.78H441.263M85.7368 318.78H83.8947M85.7368 377.745H83.8947M85.7368 436.71H83.8947M439.421 412.755H441.263M439.421 353.79H441.263M439.421 294.825H441.263M465.211 33.1678V31.3252M465.211 0V1.84266M83.8947 499.36H411.789M83.8947 499.36V436.71M83.8947 499.36H82.0527H30.4737M83.8947 499.36H30.4737M470.737 53.4371V55.2797M441.263 53.4371V55.2797M524.158 58.965V60.8077M494.684 527V525.157M496.526 525.157H494.684M441.263 289.297V291.14M441.263 527V525.157M376.789 468.035V466.192M376.789 440.395V442.238M376.789 409.07V407.227M376.789 381.43V383.273M376.789 322.465V324.308M376.789 351.948V324.308M148.368 440.395V442.238M148.368 468.035V466.192M148.368 381.43V383.273M148.368 409.07V407.227M148.368 322.465V324.308M148.368 351.948V324.308M382.316 289.297V291.14M382.316 322.465V320.622M89.4211 292.983V291.14M435.737 292.983V291.14M380.474 320.622H382.316M413.632 320.622H411.789M411.789 318.78V320.622M411.789 501.203V499.36M82.0526 291.14H83.8947M443.105 291.14H441.263M83.8947 527V525.157M83.8947 289.297V291.14M28.6316 525.157H30.4737M1 499.36V31.3252M1 499.36H30.4737M1 499.36V497.518V31.3252M30.4737 499.36V525.157M30.4737 499.36V55.2797M30.4737 499.36V493.832M30.4737 493.832V525.157M30.4737 493.832V55.2797M30.4737 527V525.157M201.789 175.052V173.21M109.684 175.052V173.21M286.526 119.773V117.93M286.526 25.7972V27.6399M351 117.93H349.158M284.684 117.93H286.526M349.158 25.7972V27.6399M349.158 119.773V117.93M284.684 27.6399H286.526M351 27.6399H349.158M494.684 499.36H524.158V60.8077M494.684 499.36V525.157M494.684 499.36V84.7622H470.737V70.021V55.2797M494.684 499.36H441.263M378.632 442.238H376.789M146.526 442.238H148.368M378.632 383.273H376.789M146.526 383.273H148.368M378.632 324.308H376.789M146.526 324.308H148.368M146.526 466.192H148.368M378.632 466.192H376.789M146.526 407.227H148.368M378.632 407.227H376.789M146.526 350.105H378.632M1 31.3252L30.4737 31.3252V1.84266H59.9474H109.684M109.684 1.84266H374.947M109.684 1.84266V173.21M109.684 1.84266V25.7972H59.9474V55.2797M374.947 1.84266H465.211M374.947 1.84266V25.7972M465.211 1.84266V31.3252M465.211 31.3252H494.684M494.684 31.3252V60.8077M494.684 60.8077H524.158M494.684 525.157H443.105H441.263M494.684 525.157H441.263M441.263 525.157H439.421H85.7368H83.8947M441.263 525.157H83.8947M83.8947 525.157H82.0526H30.4737M83.8947 525.157H30.4737M382.316 291.14V320.622M382.316 291.14H89.4211M382.316 291.14H435.737M382.316 320.622H411.789M411.789 320.622V499.36M411.789 499.36H441.263M83.8947 436.71V412.755M83.8947 412.755V377.745M83.8947 377.745V353.79M83.8947 353.79V318.78M83.8947 318.78V294.825M83.8947 294.825V291.14M83.8947 291.14H89.4211M376.789 466.192V442.238M376.789 466.192H148.368M376.789 442.238H148.368M148.368 442.238V466.192M376.789 407.227V383.273M376.789 407.227H148.368M376.789 383.273H148.368M148.368 383.273V407.227M376.789 324.308V350.105H148.368V324.308M376.789 324.308H148.368M109.684 173.21H201.789M201.789 173.21H374.947M374.947 25.7972V173.21M374.947 25.7972H413.545V40.0643V55.2797H441.263M286.526 117.93V27.6399M286.526 117.93H349.158M286.526 27.6399H349.158M349.158 27.6399V117.93M30.4737 55.2797H59.9474M30.4737 55.2797H56.2632H59.9474M441.263 499.36V436.71M441.263 436.71V412.755M441.263 412.755V377.745M441.263 377.745V353.79M441.263 353.79V318.78M441.263 318.78V294.825M441.263 294.825V291.14M441.263 291.14H435.737M441.263 55.2797H470.737" stroke="white" stroke-width="2"/>
</svg>
