<svg width="110" height="110" viewBox="0 0 110 110" fill="none" xmlns="http://www.w3.org/2000/svg">
<path d="M79.8947 60.3847V66.5386H86.0702V103.846H92.2456V90.7693V85.7693V78.4616V73.4616V66.1539V61.1539V60.3847H91.0877H79.8947Z" fill="#11071F"/>
<path d="M103.439 109.231V103.846H92.2456H86.0702H17.3684H16.9825H6.17544V109.231H16.9825H17.3684H17.7544H91.8596H92.2456H92.6316H103.439Z" fill="#11071F"/>
<path d="M78.7368 96.9232V91.9232H30.8772V96.9232H78.7368Z" fill="#11071F"/>
<path d="M78.7368 84.6155V79.6155H30.8772V84.6155H78.7368Z" fill="#11071F"/>
<path d="M30.8772 72.6924H78.7368V67.3078H30.8772V72.6924Z" fill="#11071F"/>
<path d="M97.2632 9.39071e-05H78.3509V5.00009H86.4381V7.97805V11.1539H92.2456H98.4211V14.2309V17.3078H103.439V103.846H109.614V12.3078H103.439V6.15394H97.2632V9.39071e-05Z" fill="#11071F"/>
<path fill-rule="evenodd" clip-rule="evenodd" d="M78.3509 9.39071e-05H22.7719V35.7693H42.0702H78.3509V5.00009V9.39071e-05ZM59.8246 5.38471V24.2309H72.9474V5.38471H59.8246Z" fill="#11071F"/>
<path d="M0 103.462V103.846H6.17544V102.692V11.1539H11.5789H12.3509V5.00009H22.7719V9.39071e-05H12.3509H6.17544V6.15394L0 6.15394V103.462Z" fill="#11071F"/>
</svg>
