<svg width="400" height="56" viewBox="0 0 400 56" fill="none" xmlns="http://www.w3.org/2000/svg">
<path d="M35.0693 4.65234H42.084V18.6104H28.0557V9.30469H14.0283V18.6104H21.042V23.2627H28.0557V27.915H35.0693V32.5674H42.084V51.1777H35.0693V55.8301H7.01367V51.1777H0V32.5674H14.0283V46.5254H28.0557V37.2207H21.042V32.5674H14.0283V27.915H7.01367V23.2627H0V4.65234H7.01367V0H35.0693V4.65234ZM80.7012 4.65234H84.208V9.30469H87.7158V13.958H91.2227V55.8301H77.1943V41.873H63.167V55.8301H49.1387V13.958H52.6455V9.30469H56.1523V4.65234H59.6592V0H80.7012V4.65234ZM108.798 27.915H112.306V32.5674H115.812V37.2207H122.826V32.5674H126.333V27.915H129.84V0H143.868V32.5674H140.361V37.2207H136.854V41.873H133.347V46.5254H129.84V51.1777H126.333V55.8301H112.306V51.1777H108.798V46.5254H105.291V41.873H101.784V37.2207H98.2773V32.5674H94.7705V0H108.798V27.915ZM182.485 9.30469H161.444V23.2627H182.485V32.5674H161.444V46.5254H182.485V55.8301H147.416V0H182.485V9.30469ZM221.028 4.65234H228.042V32.5674H221.028V37.2207H199.986V55.8301H185.958V0H221.028V4.65234ZM266.674 4.65234H273.688V51.1777H266.674V55.8301H238.618V51.1777H231.604V4.65234H238.618V0H266.674V4.65234ZM305.291 9.30469H298.277V46.5254H305.291V55.8301H277.235V46.5254H284.249V9.30469H277.235V0H305.291V9.30469ZM322.833 9.30469H329.847V13.958H333.354V18.6104H336.861V23.2627H340.368V27.915H343.875V0H357.902V55.8301H343.875V46.5254H336.861V41.873H333.354V37.2207H329.847V32.5674H326.34V27.915H322.833V55.8301H308.805V0H322.833V9.30469ZM400 0V9.30469H385.972V55.8301H371.944V9.30469H357.916V0H400ZM245.632 46.5254H259.659V9.30469H245.632V46.5254ZM66.6738 18.6104H63.167V32.5674H77.1943V18.6104H73.6875V13.958H66.6738V18.6104ZM199.986 27.915H214.015V9.30469H199.986V27.915Z" fill="#11071F"/>
</svg>
