<svg width="1090" height="153" viewBox="0 0 1090 153" fill="none" xmlns="http://www.w3.org/2000/svg">
<path d="M95.5176 12.75H114.622V51H76.4141V25.5H38.207V51H57.3105V63.75H76.4141V76.5H95.5176V89.25H114.622V140.25H95.5176V153H19.1035V140.25H0V89.25H38.207V127.5H76.4141V102H57.3105V89.25H38.207V76.5H19.1035V63.75H0V12.75H19.1035V0H95.5176V12.75ZM219.804 12.75H229.355V25.5H238.907V38.25H248.459V153H210.252V114.75H172.045V153H133.837V38.25H143.389V25.5H152.94V12.75H162.492V0H219.804V12.75ZM296.33 76.5H305.882V89.25H315.434V102H334.537V89.25H344.089V76.5H353.641V0H391.848V89.25H382.296V102H372.744V114.75H363.192V127.5H353.641V140.25H344.089V153H305.882V140.25H296.33V127.5H286.778V114.75H277.227V102H267.675V89.25H258.123V0H296.33V76.5ZM497.029 25.5H439.719V63.75H497.029V89.25H439.719V127.5H497.029V153H401.512V0H497.029V25.5ZM602.006 12.75H621.11V89.25H602.006V102H544.695V153H506.488V0H602.006V12.75ZM726.329 12.75H745.433V140.25H726.329V153H649.915V140.25H630.811V12.75H649.915V0H726.329V12.75ZM831.511 25.5H812.407V127.5H831.511V153H755.097V127.5H774.2V25.5H755.097V0H831.511V25.5ZM879.288 25.5H898.393V38.25H907.944V51H917.496V63.75H927.048V76.5H936.6V0H974.807V153H936.6V127.5H917.496V114.75H907.944V102H898.393V89.25H888.84V76.5H879.288V153H841.081V0H879.288V25.5ZM1089.47 0V25.5H1051.26V153H1013.05V25.5H974.844V0H1089.47ZM669.019 127.5H707.226V25.5H669.019V127.5ZM181.597 51H172.045V89.25H210.252V51H200.7V38.25H181.597V51ZM544.695 76.5H582.902V25.5H544.695V76.5Z" fill="#2CC894"/>
</svg>
